<?xml version="1.0" standalone="no"?>
<!DOCTYPE svg PUBLIC "-//W3C//DTD SVG 20010904//EN"
 "http://www.w3.org/TR/2001/REC-SVG-20010904/DTD/svg10.dtd">
<svg version="1.0" xmlns="http://www.w3.org/2000/svg"
 width="1280.000000pt" height="914.000000pt" viewBox="0 0 1280.000000 914.000000"
 preserveAspectRatio="xMidYMid meet">

<g transform="translate(0.000000,914.000000) scale(0.100000,-0.100000)"
fill="#000000" stroke="none">
<path d="M5900 8569 c-122 -15 -238 -38 -344 -70 -88 -26 -113 -29 -235 -29
-356 0 -680 -73 -993 -224 -51 -24 -115 -48 -143 -52 -71 -9 -216 -57 -337
-110 -155 -68 -165 -71 -269 -83 -266 -30 -554 -144 -784 -311 -29 -22 -94
-52 -155 -73 -239 -81 -428 -176 -550 -276 -25 -21 -92 -68 -150 -105 -145
-94 -271 -198 -389 -322 -114 -119 -189 -226 -256 -365 l-46 -96 -82 -41 c-45
-23 -105 -61 -133 -86 -101 -89 -170 -230 -181 -370 l-6 -71 -71 -75 c-84 -88
-135 -163 -183 -267 -33 -72 -83 -243 -83 -286 0 -11 -14 -61 -32 -111 -28
-80 -32 -107 -36 -221 -3 -97 0 -153 13 -220 21 -109 22 -141 5 -222 -12 -54
-11 -67 2 -102 14 -36 15 -45 1 -92 -22 -75 -13 -204 20 -298 15 -40 33 -79
41 -85 7 -6 22 -36 31 -66 10 -30 26 -66 35 -80 10 -14 21 -56 25 -95 32 -312
110 -539 270 -781 124 -187 247 -302 368 -345 22 -8 43 -23 49 -34 19 -37 112
-126 168 -160 191 -116 525 -165 987 -145 204 9 612 47 758 70 99 16 99 16
151 -57 26 -38 81 -108 122 -157 41 -48 90 -116 109 -149 59 -104 117 -178
209 -267 101 -96 197 -163 329 -227 49 -25 122 -69 160 -99 77 -60 197 -123
290 -151 47 -14 92 -18 210 -17 136 1 161 4 268 32 65 18 128 37 140 43 11 7
86 18 166 25 451 42 731 181 847 421 36 74 42 81 74 87 19 4 70 18 112 32 43
14 82 23 86 20 5 -3 12 -20 16 -37 11 -54 112 -251 167 -322 69 -91 154 -158
269 -214 291 -142 452 -294 874 -831 146 -186 122 -177 259 -101 48 27 91 49
95 49 10 0 209 132 244 162 l27 23 -100 120 c-54 65 -99 123 -99 127 0 4 11 3
25 -2 55 -21 265 -71 365 -86 131 -21 384 -24 505 -5 194 29 410 109 570 210
34 22 145 81 246 131 261 131 369 203 405 272 8 16 45 43 97 72 185 100 356
228 518 387 86 83 136 172 165 294 23 97 21 342 -4 485 -11 58 -17 108 -15
113 2 4 15 7 29 7 41 0 234 46 304 73 169 64 273 129 391 247 127 125 211 264
275 452 18 54 38 123 44 155 7 32 28 84 48 116 19 31 41 81 48 109 24 92 16
241 -22 395 -14 57 -14 64 2 95 10 19 19 64 22 108 7 125 -40 219 -196 392
l-78 88 -23 100 c-39 173 -112 307 -239 438 l-69 70 -6 81 c-9 112 -46 190
-128 265 -33 31 -84 70 -112 86 -47 27 -53 35 -97 132 -25 57 -67 135 -92 175
-54 82 -170 208 -254 274 -31 24 -65 51 -75 59 -12 10 -22 38 -29 85 -30 202
-194 378 -485 523 -55 27 -111 53 -125 57 -13 4 -94 79 -180 165 -269 274
-539 464 -883 621 -51 23 -106 53 -123 65 -53 41 -178 93 -250 104 -38 6 -108
10 -156 9 l-87 -3 -53 50 c-108 102 -265 172 -437 195 -96 13 -366 7 -473 -11
-63 -11 -69 -10 -118 15 -69 35 -165 54 -270 55 -47 1 -121 5 -165 10 -44 5
-199 14 -345 20 -146 6 -318 17 -383 26 -152 19 -332 25 -427 13z m360 -59
c41 -5 88 -13 104 -16 28 -6 28 -6 -25 -36 -53 -28 -119 -84 -119 -100 0 -17
22 -7 73 33 29 23 81 55 117 71 64 29 67 30 190 24 166 -8 454 -28 458 -31 2
-1 -7 -19 -19 -39 -12 -21 -29 -81 -39 -143 -11 -60 -25 -128 -32 -153 l-14
-45 -154 -22 c-234 -34 -391 -84 -504 -162 -25 -17 -47 -31 -49 -31 -3 0 -8
11 -11 24 -7 30 -93 126 -112 126 -23 0 -16 -14 22 -51 20 -18 45 -53 56 -77
18 -40 18 -45 4 -65 -69 -95 -95 -155 -103 -241 -9 -100 8 -163 71 -254 98
-144 100 -220 9 -287 -21 -15 -48 -39 -60 -54 l-23 -26 0 35 c0 41 -29 108
-56 132 -11 10 -42 27 -69 40 -47 21 -68 23 -320 28 -245 6 -275 8 -325 28
-65 26 -70 26 -70 8 0 -16 31 -29 115 -51 44 -11 115 -15 275 -15 336 0 404
-28 417 -171 5 -51 2 -66 -29 -131 -41 -83 -73 -183 -114 -348 -20 -80 -40
-134 -66 -177 -94 -156 -158 -398 -158 -600 0 -116 -26 -161 -225 -393 -91
-106 -118 -192 -70 -224 13 -9 26 -16 28 -16 2 0 7 22 10 49 9 77 41 129 142
226 81 79 96 99 123 167 40 96 62 198 68 309 7 149 61 306 145 424 22 30 37
77 64 195 44 191 68 266 112 352 47 91 89 136 167 182 42 25 77 54 94 80 34
50 89 70 178 62 33 -3 65 -6 70 -8 5 -2 10 2 11 7 7 28 -138 35 -206 11 -24
-9 -45 -16 -46 -16 -2 0 -6 17 -10 37 -8 46 -33 95 -98 197 -133 207 -92 384
110 484 123 61 293 106 497 133 79 10 106 18 137 41 44 32 80 97 103 184 25
95 54 173 76 204 19 26 28 30 69 30 125 0 247 -48 342 -136 31 -29 102 -82
158 -119 123 -82 185 -148 206 -218 23 -76 21 -89 -12 -81 -16 4 -54 17 -87
30 -55 22 -83 24 -71 4 3 -5 69 -30 148 -56 180 -59 266 -102 335 -167 57 -54
117 -137 127 -178 5 -21 1 -26 -43 -41 -75 -27 -193 -109 -290 -201 -79 -76
-94 -86 -166 -110 -82 -27 -96 -27 -96 -1 0 49 -95 169 -178 225 -165 111
-441 191 -877 253 -301 43 -457 54 -434 32 2 -3 105 -16 229 -31 559 -65 865
-144 1062 -273 77 -49 127 -104 157 -168 32 -67 29 -75 -46 -114 -91 -47 -175
-131 -214 -214 l-31 -67 11 -191 c11 -180 9 -217 -7 -192 -8 13 -96 80 -122
94 -12 6 -21 7 -25 1 -3 -6 20 -28 52 -49 32 -22 71 -54 87 -71 29 -30 29 -31
22 -113 -6 -85 -34 -206 -55 -245 -12 -24 -73 -68 -221 -158 -52 -32 -137 -90
-188 -128 -119 -88 -236 -227 -193 -227 5 0 19 15 31 34 35 58 171 177 279
246 57 36 146 93 199 128 120 79 132 85 211 111 42 14 90 21 138 21 55 0 74 3
70 13 -7 19 -154 11 -226 -13 -33 -11 -62 -20 -65 -20 -2 0 6 28 18 63 20 59
21 81 21 397 l0 335 28 47 c65 109 187 191 373 252 75 25 89 34 161 105 142
140 281 218 440 247 90 16 102 16 195 1 111 -19 208 -57 312 -124 l69 -44 -45
-42 c-45 -41 -67 -82 -53 -95 4 -4 10 -1 13 7 11 32 76 90 125 112 48 22 65
24 212 24 144 -1 170 -3 259 -29 170 -47 299 -104 417 -182 37 -24 72 -44 78
-44 24 0 8 17 -53 57 -270 177 -645 271 -861 217 l-63 -16 -62 42 c-134 91
-303 150 -430 150 -72 0 -79 6 -80 63 0 35 -51 127 -96 173 -44 44 -45 47 -29
70 60 92 232 143 548 162 l118 7 97 -45 c217 -100 428 -230 602 -369 106 -85
348 -316 340 -325 -3 -3 -51 22 -105 55 -306 187 -371 222 -495 274 -136 55
-429 108 -418 74 3 -10 28 -16 79 -20 204 -17 384 -83 629 -232 192 -116 302
-182 364 -217 147 -83 154 -204 27 -458 -100 -199 -103 -216 -87 -447 10 -135
-7 -224 -58 -300 -18 -27 -80 -95 -136 -150 -220 -213 -265 -266 -326 -386
-56 -112 -108 -359 -73 -347 9 3 16 29 21 81 4 43 20 115 36 162 50 144 105
221 292 405 191 187 220 225 251 318 19 55 22 87 21 182 -1 63 -5 129 -11 147
-5 17 -7 34 -3 37 10 11 109 6 184 -8 133 -26 241 -89 345 -200 58 -62 83 -79
83 -57 0 6 -35 45 -78 88 -137 136 -261 192 -439 201 -57 2 -103 7 -103 11 0
18 55 151 109 264 93 194 108 289 62 381 -11 20 -17 36 -15 36 15 0 201 -101
259 -140 94 -63 195 -173 233 -252 30 -61 61 -183 49 -194 -3 -4 -69 12 -146
35 -147 43 -161 46 -161 33 0 -8 120 -48 263 -88 97 -27 263 -165 372 -309 25
-33 66 -102 91 -153 l46 -92 -48 -57 c-27 -32 -88 -99 -136 -149 -49 -50 -88
-97 -88 -104 0 -19 58 -2 119 33 29 18 87 65 128 105 l74 73 52 -32 c75 -47
156 -127 180 -179 16 -33 21 -67 23 -131 l1 -87 69 -68 c70 -70 130 -145 173
-219 32 -54 77 -188 86 -252 6 -47 4 -58 -23 -105 -47 -84 -71 -179 -81 -326
-10 -145 -40 -255 -93 -345 -15 -27 -26 -53 -23 -58 15 -23 34 -4 69 69 21 42
42 84 46 93 4 8 13 41 20 73 11 55 13 57 37 51 65 -16 93 -54 93 -127 0 -33 7
-48 41 -86 40 -45 82 -124 108 -204 11 -35 28 -47 44 -32 16 17 -72 207 -123
263 -18 19 -30 43 -30 59 0 81 -50 146 -123 161 l-32 7 3 74 c4 92 43 253 72
304 l23 37 31 -33 c82 -87 158 -187 192 -252 48 -89 53 -164 16 -243 l-24 -50
27 -108 c36 -146 38 -297 4 -374 l-22 -52 -22 43 c-19 39 -100 108 -126 108
-24 0 -4 -38 33 -60 27 -17 47 -39 60 -68 17 -37 18 -50 8 -100 -16 -81 -59
-229 -82 -282 -74 -172 -184 -337 -217 -325 -9 4 -54 13 -101 21 -81 14 -230
59 -295 88 -107 49 -343 117 -471 137 l-139 21 -49 51 c-60 63 -127 165 -168
255 -16 37 -34 76 -39 87 -17 38 -60 200 -66 248 -6 46 -5 47 22 47 15 0 59
-20 99 -44 128 -80 250 -113 586 -156 80 -10 162 -26 182 -34 23 -10 52 -36
77 -69 52 -71 126 -135 159 -139 32 -4 109 -100 160 -202 19 -36 37 -66 42
-66 8 0 -10 93 -31 158 -9 27 -109 177 -128 192 -4 3 -21 24 -40 48 -61 78
-213 149 -415 193 -49 11 -92 22 -95 23 -3 2 -58 12 -121 21 -366 53 -504 179
-549 502 -7 46 -19 109 -27 140 -32 125 -28 319 9 451 18 63 91 152 302 370
l141 145 45 -74 c58 -94 87 -155 105 -222 22 -83 19 -94 -36 -144 -85 -77
-177 -231 -226 -381 -29 -88 -31 -115 -7 -110 12 2 24 26 39 80 37 134 108
260 200 358 45 47 85 96 89 110 36 119 156 263 264 314 60 29 80 56 41 56 -28
0 -119 -53 -173 -100 -42 -37 -121 -146 -145 -200 -9 -22 -11 -19 -11 30 -2
81 -26 173 -71 264 l-40 80 33 35 32 34 -36 -26 c-45 -34 -51 -34 -71 1 -31
52 -129 152 -210 212 -142 107 -318 180 -435 180 -46 0 -130 -18 -137 -29 -2
-3 30 -7 72 -8 87 -2 161 -24 260 -78 123 -68 258 -182 364 -309 l49 -58 -43
-36 c-69 -57 -265 -251 -327 -323 l-57 -65 -12 79 c-13 91 -39 152 -110 264
-67 103 -100 177 -109 243 -5 30 -14 55 -22 58 -10 3 -12 -5 -6 -39 14 -92 38
-151 96 -241 101 -158 121 -208 127 -319 4 -82 1 -101 -16 -135 -30 -60 -43
-117 -52 -237 -9 -120 12 -316 64 -603 14 -78 26 -148 26 -155 -1 -8 -24 -25
-53 -39 -70 -34 -165 -129 -216 -218 -23 -40 -69 -141 -102 -225 -34 -84 -69
-171 -80 -194 -10 -24 -19 -45 -19 -48 0 -3 -18 -37 -40 -76 -37 -66 -42 -89
-20 -89 21 0 99 161 186 385 82 210 129 291 218 373 40 37 132 92 154 92 6 0
13 -35 17 -77 7 -80 45 -241 72 -303 72 -166 169 -335 218 -381 13 -13 25 -28
25 -33 0 -5 -23 -59 -52 -120 -47 -103 -52 -118 -56 -204 -4 -88 -3 -92 16
-92 19 0 21 6 20 62 -1 74 13 131 52 213 15 33 36 77 45 97 20 43 19 43 100
23 33 -8 105 -21 160 -30 55 -8 136 -24 180 -36 77 -20 230 -75 250 -90 21
-14 161 -69 199 -77 l39 -8 -41 -32 c-61 -49 -201 -117 -310 -151 -190 -60
-447 -86 -697 -69 -82 6 -169 12 -192 13 -24 2 -65 16 -95 33 -29 16 -77 37
-106 47 l-54 17 61 29 c33 16 65 29 71 29 5 0 10 9 10 20 0 28 -12 25 -99 -17
l-76 -38 -123 3 c-115 3 -123 2 -120 -15 3 -15 17 -19 98 -24 109 -7 232 -38
307 -77 29 -15 53 -29 53 -32 0 -12 -122 -53 -214 -71 -74 -15 -124 -20 -186
-16 -104 6 -266 31 -340 53 -202 59 -226 68 -257 97 -18 17 -33 34 -33 38 0 4
24 18 53 32 109 54 273 222 293 301 11 44 -19 31 -45 -20 -14 -25 -55 -78 -92
-118 -119 -127 -253 -188 -480 -220 l-46 -7 -6 70 c-3 39 -15 91 -26 116 -44
100 -163 183 -326 226 -68 19 -108 22 -275 23 -187 0 -200 -1 -320 -31 -279
-71 -339 -75 -426 -31 -43 21 -63 20 -49 -2 4 -7 28 -22 54 -33 79 -36 154
-29 461 43 182 43 455 35 610 -17 170 -57 257 -151 268 -288 11 -139 -83 -328
-198 -399 -156 -97 -357 -144 -770 -180 -91 -8 -199 -22 -241 -30 -255 -49
-476 -42 -546 18 -56 48 -25 198 61 290 39 41 44 56 22 56 -18 0 -78 -73 -109
-131 -18 -33 -33 -47 -63 -57 -21 -8 -58 -21 -82 -29 -53 -19 -107 -62 -93
-76 6 -6 21 -1 43 16 18 13 58 32 88 42 30 10 60 20 66 22 7 3 12 -15 12 -49
1 -29 3 -62 4 -72 2 -14 -17 -35 -67 -72 -115 -87 -249 -153 -358 -178 -16 -4
-72 -27 -125 -52 -170 -80 -334 -137 -446 -156 -11 -2 -25 -21 -37 -51 -103
-263 -368 -404 -844 -450 -82 -8 -166 -22 -186 -30 -19 -9 -82 -28 -140 -43
-89 -24 -124 -28 -239 -28 -116 0 -145 3 -205 23 -110 37 -193 83 -293 161
-101 80 -159 156 -215 283 -29 67 -31 80 -32 187 0 114 0 116 38 189 48 93
145 189 254 253 112 66 111 66 119 24 3 -20 24 -64 45 -97 82 -127 128 -237
151 -362 13 -68 30 -92 36 -50 5 34 -37 190 -70 262 -16 36 -49 95 -72 131
-24 36 -53 97 -65 135 -26 82 -54 131 -83 146 -35 19 -109 91 -150 147 -48 64
-68 119 -68 183 0 39 -3 49 -16 49 -28 0 -14 -124 21 -188 31 -57 149 -190
186 -210 13 -7 34 -28 46 -46 l22 -34 -52 -27 c-166 -89 -274 -191 -335 -315
-36 -73 -37 -78 -37 -185 0 -90 4 -120 23 -168 29 -75 58 -132 94 -184 16 -24
27 -43 24 -43 -3 0 -44 22 -91 49 -159 92 -284 207 -374 346 -28 42 -51 82
-51 87 0 10 0 10 78 -40 72 -45 182 -102 198 -102 36 0 6 29 -64 62 -204 99
-308 183 -408 333 -30 45 -34 62 -45 163 -22 200 12 379 104 557 52 100 144
223 204 272 101 85 134 117 168 169 58 88 110 200 159 349 61 181 85 224 181
321 197 200 498 334 1011 448 l150 34 57 59 c119 125 282 219 420 243 68 12
250 11 262 -2 4 -4 -12 -46 -36 -94 -30 -59 -58 -100 -91 -129 -46 -41 -60
-65 -38 -65 6 0 33 21 60 46 35 33 65 77 104 154 31 59 76 130 102 159 118
131 325 260 484 300 87 22 235 36 282 27 25 -5 42 -19 68 -57 19 -28 49 -71
66 -95 47 -67 78 -174 72 -249 -7 -78 -50 -170 -117 -250 -53 -62 -60 -75 -38
-75 17 0 84 78 126 147 l31 51 38 -35 c62 -57 90 -75 98 -62 4 7 -3 20 -17 31
-64 52 -109 101 -105 117 24 81 6 221 -38 310 -24 48 -66 163 -66 181 0 6 11
8 25 4 19 -5 25 -2 25 10 0 11 -9 16 -30 16 -38 0 -38 16 -1 67 61 84 189 161
421 253 399 158 568 298 610 505 16 77 71 192 155 325 74 116 165 268 165 275
0 3 -6 5 -12 5 -7 0 -26 -24 -42 -53 -16 -28 -67 -112 -114 -186 -104 -165
-156 -272 -181 -374 -11 -43 -33 -99 -50 -125 -61 -95 -181 -190 -321 -255
-106 -49 -217 -97 -225 -97 -4 0 -21 -6 -38 -14 -249 -112 -318 -155 -384
-240 -22 -28 -27 -29 -145 -37 l-123 -9 -70 35 c-105 51 -256 171 -330 261
l-37 44 31 108 c40 142 49 206 56 402 9 244 18 297 66 398 55 115 161 223 299
302 122 71 217 143 364 274 66 58 123 106 128 106 4 0 8 7 8 15 0 8 -3 15 -8
15 -8 0 -88 -66 -191 -159 -70 -63 -71 -63 -71 -34 0 43 -46 129 -88 163 -58
47 -176 104 -299 144 -118 38 -143 42 -143 26 0 -5 33 -19 73 -30 183 -53 285
-100 354 -163 57 -53 73 -84 73 -146 0 -50 0 -50 -62 -94 -35 -25 -106 -70
-158 -101 -119 -71 -197 -139 -249 -217 l-40 -60 -14 33 c-8 18 -20 51 -27 73
-12 39 -62 137 -82 162 -6 7 -14 11 -18 8 -5 -3 11 -42 35 -88 24 -45 53 -114
65 -153 l21 -71 -25 -74 c-22 -66 -26 -102 -35 -315 -9 -189 -15 -258 -32
-320 -44 -164 -59 -241 -59 -315 0 -98 33 -199 57 -175 4 3 -1 23 -11 44 -20
40 -35 192 -20 192 5 0 39 -30 74 -66 81 -82 187 -163 264 -202 32 -16 54 -32
50 -34 -5 -3 -43 -15 -84 -27 -143 -43 -291 -132 -493 -297 l-74 -61 -129 -6
c-103 -5 -150 -12 -234 -37 -66 -20 -106 -27 -108 -21 -2 6 -12 11 -22 11 -34
0 -195 89 -263 145 -78 65 -160 170 -182 234 -8 25 -15 72 -15 105 0 81 -32
211 -71 288 -18 35 -59 105 -91 157 -82 128 -83 133 -68 265 10 89 10 120 1
149 -15 45 -48 54 -35 10 8 -28 9 -42 2 -223 -2 -80 0 -100 16 -125 11 -16 38
-59 61 -95 106 -164 155 -302 155 -435 0 -60 5 -81 34 -140 64 -133 213 -266
381 -339 l75 -32 -38 -18 c-61 -29 -153 -99 -229 -175 -45 -45 -80 -71 -93
-71 -31 0 -266 -53 -376 -85 -391 -113 -667 -272 -811 -467 l-36 -50 -61 95
c-34 52 -74 119 -90 149 l-29 54 26 66 c45 111 31 205 -44 300 -33 41 -135
128 -150 128 -23 0 -5 -29 41 -65 139 -110 182 -232 124 -355 l-26 -55 -98
102 c-118 124 -175 227 -215 393 -31 130 -50 369 -34 438 22 98 112 199 269
300 251 162 292 193 270 207 -5 3 -27 -6 -48 -22 -20 -16 -55 -40 -77 -55
-218 -140 -278 -184 -333 -241 -66 -69 -107 -144 -118 -214 -3 -24 -7 -43 -9
-43 -1 0 -49 15 -106 34 -57 19 -125 37 -150 41 l-47 7 -26 81 c-29 93 -43
167 -60 316 -7 65 -16 106 -24 109 -16 5 -15 -24 3 -178 8 -69 26 -166 41
-215 14 -50 29 -98 31 -107 3 -10 0 -18 -6 -18 -7 0 -31 -18 -54 -40 -23 -21
-67 -59 -97 -83 -37 -29 -64 -62 -85 -101 -26 -51 -29 -67 -28 -137 l2 -79
-42 -24 c-46 -28 -122 -53 -324 -111 -86 -25 -133 -43 -133 -52 0 -18 8 -17
123 17 227 67 274 83 325 108 72 34 81 51 80 142 -1 113 29 164 145 250 31 23
57 47 57 52 0 5 16 16 37 24 44 19 71 15 224 -33 l117 -36 6 -36 c3 -20 6 -54
6 -77 0 -63 38 -259 65 -336 43 -123 91 -195 211 -318 81 -83 126 -140 164
-205 29 -49 70 -115 92 -146 25 -35 36 -62 32 -72 -5 -15 -50 -32 -137 -53
-15 -3 -29 -10 -32 -14 -9 -15 -186 42 -308 99 -67 32 -210 122 -221 140 -10
15 -36 14 -36 -1 0 -48 292 -203 478 -254 39 -11 62 -23 62 -32 0 -8 -13 -42
-29 -76 -99 -206 -354 -364 -630 -392 -68 -6 -89 -18 -55 -31 8 -3 62 2 118
10 281 44 529 223 614 443 26 70 28 72 75 87 46 15 49 15 44 -1 -3 -9 -26 -83
-50 -163 -64 -211 -98 -269 -242 -419 -66 -69 -132 -139 -145 -156 -22 -28
-33 -33 -92 -39 -45 -4 -68 -3 -68 4 0 6 35 36 77 67 130 96 203 173 203 214
0 21 -17 9 -47 -34 -18 -25 -67 -72 -110 -106 -43 -34 -99 -79 -125 -101 -57
-48 -74 -49 -246 -13 -205 42 -361 115 -388 181 -13 29 -12 37 1 64 30 56 106
118 209 169 56 27 118 52 139 56 22 4 37 12 37 20 0 46 -209 -41 -331 -138
-67 -53 -107 -68 -178 -68 -108 0 -214 43 -501 202 -74 41 -169 89 -210 107
-162 69 -233 114 -502 322 -184 142 -327 241 -342 236 -24 -8 -12 -24 42 -55
31 -18 103 -68 158 -110 455 -345 442 -337 612 -411 60 -26 171 -83 247 -126
273 -154 396 -200 517 -193 l66 4 -1 -41 -2 -40 -155 0 c-95 0 -179 -5 -216
-14 -61 -13 -63 -13 -165 22 -151 52 -217 60 -325 42 -48 -9 -108 -25 -133
-37 -64 -28 -178 -58 -227 -58 -48 0 -120 23 -146 47 -14 12 -21 14 -30 5 -27
-27 92 -82 176 -82 56 0 146 23 236 58 105 42 201 56 278 42 61 -11 149 -37
209 -62 l32 -14 -32 -26 c-81 -64 -168 -93 -330 -108 -103 -10 -111 -13 -195
-61 -48 -27 -112 -57 -142 -66 -78 -24 -209 -22 -279 5 -50 20 -71 21 -71 4 0
-13 76 -41 144 -53 119 -22 222 5 405 106 55 30 73 35 130 35 86 0 181 21 261
57 l63 28 71 -23 c107 -36 189 -51 319 -58 l117 -7 20 -45 c11 -25 19 -46 18
-47 -2 -1 -24 -9 -49 -19 -51 -18 -85 -49 -74 -66 4 -7 14 -4 30 8 13 10 44
27 69 36 l46 18 31 -27 c45 -37 114 -70 242 -116 62 -21 120 -44 131 -50 14
-8 21 -8 27 3 11 17 -10 27 -164 82 -174 61 -258 119 -281 193 -7 21 -4 22 50
25 35 2 59 8 62 16 3 9 -18 12 -80 12 -81 0 -329 23 -385 36 -73 16 -163 49
-160 59 6 20 93 54 167 66 45 7 124 9 199 6 104 -5 127 -9 145 -25 59 -55 237
-132 339 -147 26 -4 47 -11 47 -16 0 -5 -28 -29 -62 -53 -35 -25 -73 -52 -85
-61 -24 -17 -30 -35 -12 -35 14 0 128 77 166 112 30 29 33 30 101 23 l70 -7
-10 -30 c-13 -35 6 -112 25 -105 7 2 11 13 9 23 -7 42 -5 84 4 93 5 5 42 11
81 13 l73 5 -26 -41 c-47 -77 -97 -181 -124 -261 -33 -93 -54 -253 -45 -328
l7 -53 -134 -17 c-142 -19 -359 -41 -578 -58 -211 -17 -629 -6 -765 20 -207
40 -320 89 -416 181 -73 70 -79 93 -45 169 14 32 26 64 26 70 0 6 10 10 21 8
39 -4 30 17 -16 42 -49 26 -67 22 -47 -10 8 -13 11 -33 6 -52 -10 -47 -42
-107 -58 -107 -7 0 -42 14 -77 32 -80 40 -183 142 -262 259 l-58 86 15 67 c19
81 19 76 1 76 -8 0 -17 -12 -21 -28 -18 -81 -18 -81 -53 -16 -81 147 -131 313
-162 532 l-22 158 42 63 c23 34 45 77 48 96 7 44 -3 85 -22 85 -11 0 -13 -10
-9 -47 5 -43 2 -54 -33 -105 -21 -32 -41 -58 -45 -58 -3 0 -14 20 -23 43 -15
39 -15 60 -5 183 12 149 24 240 39 291 15 50 77 138 164 230 54 56 77 87 70
94 -12 12 -118 -94 -192 -190 -41 -54 -47 -59 -61 -46 -9 8 -22 15 -28 15 -18
0 -14 -21 5 -35 16 -12 16 -19 0 -121 -9 -60 -20 -153 -23 -207 -4 -60 -11
-96 -17 -94 -6 2 -22 32 -35 68 -33 85 -37 232 -8 297 18 41 18 43 1 62 -21
23 -23 96 -5 144 l11 29 22 -22 c24 -22 47 -28 47 -12 0 5 -15 24 -33 42 -51
52 -72 154 -72 344 1 139 3 156 29 225 15 41 38 127 52 191 36 178 94 298 209
432 36 42 77 84 90 93 22 14 25 24 25 73 0 134 60 270 159 364 57 54 147 109
213 130 9 3 27 30 40 59 119 282 312 498 635 714 70 48 144 99 163 114 132
103 259 171 453 244 78 29 155 56 170 60 16 4 58 28 95 55 214 154 468 258
722 297 139 20 132 24 93 -52 -18 -37 -33 -72 -33 -79 0 -17 -86 -29 -139 -20
-23 4 -42 2 -45 -4 -20 -32 103 -39 195 -11 111 33 280 133 261 152 -7 7 -34
-4 -84 -35 -40 -25 -90 -53 -110 -62 -36 -14 -38 -14 -38 2 0 31 78 140 108
151 15 6 74 31 132 57 117 51 241 90 323 100 50 6 55 5 70 -18 9 -14 26 -28
37 -32 11 -3 20 -10 20 -13 0 -7 -151 -146 -273 -252 -27 -23 -56 -36 -102
-46 -70 -15 -130 -42 -184 -83 -29 -22 -110 -123 -162 -201 l-16 -25 -51 28
c-108 59 -187 79 -330 84 -157 7 -245 -5 -389 -53 -135 -44 -261 -102 -408
-189 -165 -98 -195 -118 -195 -132 0 -21 18 -15 78 25 236 158 480 268 686
307 99 19 270 19 361 0 39 -8 107 -33 152 -55 l81 -40 -52 -93 c-164 -290
-222 -374 -311 -456 -30 -27 -55 -52 -55 -55 0 -3 8 -6 19 -6 25 0 144 127
202 215 25 39 90 147 143 240 186 325 267 415 403 450 110 29 199 20 563 -54
153 -32 220 -36 227 -15 2 7 -23 13 -69 18 -40 3 -117 16 -170 28 l-98 21 0
66 c0 68 19 123 61 182 32 45 9 61 -24 17 -47 -61 -67 -118 -67 -192 0 -66 -1
-68 -22 -62 -34 9 -188 35 -230 38 l-36 3 76 66 c43 37 125 112 184 167 90 85
115 103 160 116 191 55 485 89 773 90 208 1 211 1 274 -27 75 -31 104 -56 134
-112 20 -37 22 -52 19 -187 -2 -84 2 -165 8 -187 19 -71 74 -118 158 -136 50
-10 41 19 -10 34 -64 19 -88 38 -111 89 -26 60 -27 183 -2 236 24 49 103 127
167 163 113 64 290 103 471 103 62 0 77 3 77 15 0 12 -17 15 -89 15 -251 0
-464 -70 -582 -190 l-46 -47 -17 61 c-14 49 -27 70 -66 108 -70 67 -145 90
-320 96 -186 6 -652 -39 -772 -74 -28 -8 -22 9 22 64 46 57 68 67 245 106 159
35 280 48 450 50 l150 1 58 -37 c61 -38 175 -66 217 -53 35 11 17 30 -26 27
-45 -3 -166 31 -184 53 -10 12 -8 16 11 24 58 21 222 61 309 75 110 16 342 20
450 6z m1924 -139 c120 -32 219 -86 300 -163 l69 -66 91 5 c127 8 220 -10 319
-60 l82 -42 -70 -7 c-193 -20 -266 -30 -329 -43 l-69 -15 -56 49 c-124 107
-266 185 -444 245 -111 37 -137 42 -137 27 0 -4 46 -23 103 -40 175 -55 331
-140 472 -258 l38 -31 -50 -25 c-53 -27 -106 -72 -115 -97 -4 -12 -17 -9 -72
18 -36 18 -71 30 -78 26 -6 -4 15 -21 53 -40 124 -62 211 -166 225 -267 7 -49
5 -51 -47 -61 -36 -6 -36 -6 -75 59 -21 37 -53 84 -71 105 -45 52 -159 127
-247 161 l-71 27 -12 54 c-7 29 -22 74 -34 100 l-22 47 32 39 c31 40 39 62 22
62 -7 0 -23 -19 -67 -78 -1 -2 -31 18 -66 45 -34 27 -101 74 -148 105 -99 66
-151 115 -129 122 42 15 185 24 344 21 145 -2 195 -7 259 -24z m-3624 -85 c0
-2 -16 -28 -35 -57 -26 -38 -49 -58 -84 -75 -27 -12 -52 -27 -55 -33 -12 -18
-34 -12 -68 18 l-33 30 95 44 c52 24 111 51 130 60 36 16 50 20 50 13z m4852
-5608 c-30 -30 -213 -114 -340 -157 -67 -22 -125 -41 -128 -41 -3 0 8 19 23
43 33 49 49 81 78 157 l20 55 72 6 c78 7 169 26 193 40 11 7 26 -3 57 -38 41
-45 42 -48 25 -65z m1262 -34 c76 -4 132 -10 125 -14 -8 -4 -111 -35 -229 -69
-228 -66 -339 -98 -460 -136 -41 -13 -122 -38 -180 -55 -488 -148 -1154 -373
-1462 -494 -65 -25 -123 -46 -130 -46 -14 0 59 36 152 75 30 12 129 55 220 95
525 230 1342 536 1481 555 69 9 191 49 249 80 27 15 55 23 70 21 15 -3 88 -8
164 -12z m-1138 -5 c24 -6 44 -14 44 -18 0 -3 -49 -24 -108 -45 -136 -50 -330
-128 -447 -181 -263 -118 -503 -259 -666 -391 -44 -35 -81 -64 -83 -64 -3 0 1
14 7 31 16 40 381 317 482 365 39 18 84 42 100 53 17 12 102 44 190 72 151 48
329 127 383 170 29 22 38 23 98 8z m1552 -5 c-3 -17 -70 -40 -1413 -488 -751
-251 -917 -304 -1205 -390 -290 -86 -430 -114 -430 -87 0 16 407 176 840 329
367 130 1112 370 1390 447 25 7 182 53 350 103 168 50 328 92 355 95 112 8
117 8 113 -9z m-1373 -44 c28 -7 57 -14 65 -16 8 -3 -44 -25 -115 -49 -72 -24
-173 -60 -225 -80 -52 -20 -117 -44 -145 -55 -263 -98 -765 -334 -747 -352 7
-7 44 7 111 41 289 146 697 315 1036 430 l150 50 98 -7 98 -7 -228 -82 c-441
-159 -608 -224 -1028 -403 -201 -85 -181 -76 -417 -183 -183 -83 -187 -84
-170 -55 36 63 309 270 492 373 180 102 466 235 655 305 28 11 104 39 170 64
66 25 127 43 135 41 8 -2 38 -9 65 -15z m1390 -46 c3 -25 5 -47 3 -48 -2 -2
-59 -20 -128 -40 -69 -21 -251 -76 -405 -122 -154 -47 -325 -98 -380 -114 -55
-16 -154 -46 -220 -66 -66 -20 -136 -41 -155 -46 -43 -12 -300 -89 -550 -164
-209 -63 -642 -199 -860 -269 -145 -47 -185 -54 -230 -37 -22 8 -21 9 15 16
172 31 974 289 2395 770 267 91 490 165 496 165 7 1 15 -20 19 -45z m17 -136
l5 -46 -86 -31 c-190 -67 -485 -154 -956 -283 -409 -111 -1201 -306 -1460
-358 -55 -11 -113 -23 -130 -27 -16 -3 -27 -3 -24 1 8 8 807 257 1139 355 58
17 174 51 257 76 84 25 212 63 285 84 105 31 715 215 913 276 22 6 43 9 46 6
4 -3 9 -27 11 -53z m8 -112 c0 -30 -5 -36 -37 -49 -21 -9 -72 -30 -113 -47
-69 -29 -256 -100 -264 -100 -2 0 29 32 69 70 70 69 75 72 201 114 71 25 132
45 137 45 4 1 7 -14 7 -33z m-2514 -15 c-9 -13 -287 -223 -291 -219 -2 2 3 24
10 48 8 25 19 63 25 86 l10 41 87 13 c49 7 104 19 123 26 44 16 42 16 36 5z
m-276 -59 c0 -26 -65 -209 -97 -272 -38 -75 -111 -180 -124 -180 -4 0 7 33 26
73 33 72 78 217 90 292 12 80 14 84 43 88 49 7 62 7 62 -1z m2790 -11 c0 -24
-20 -37 -170 -104 -129 -58 -415 -167 -437 -167 -8 0 112 97 135 109 12 6 73
29 135 51 61 21 159 59 217 84 58 24 108 45 113 45 4 1 7 -7 7 -18z m-385 -41
c-87 -88 -106 -97 -244 -115 -155 -20 -361 -33 -367 -23 -3 5 1 8 9 8 8 0 63
14 123 31 194 54 347 99 429 123 44 14 84 25 90 25 5 1 -13 -22 -40 -49z
m-2641 -65 c-20 -124 -66 -265 -117 -360 -44 -82 -61 -97 -125 -109 l-34 -6
42 48 c90 102 150 279 150 441 l0 80 43 3 c23 2 45 1 49 -2 3 -3 0 -45 -8 -95z
m110 63 c-20 -134 -85 -320 -146 -425 -16 -27 -62 -63 -80 -63 -2 0 15 38 37
84 59 121 71 163 121 424 4 18 11 22 39 22 l35 0 -6 -42z m-217 -65 c-12 -176
-64 -314 -157 -417 -44 -47 -57 -56 -86 -56 l-35 0 42 61 c84 124 169 353 169
455 0 34 19 53 54 54 18 0 19 -6 13 -97z m-727 81 c0 -22 -42 -382 -45 -393
-4 -10 -9 -10 -19 -2 -12 10 -26 92 -42 250 l-7 65 49 43 c46 40 64 51 64 37z
m634 -46 c-21 -150 -81 -306 -171 -441 -43 -65 -48 -69 -76 -63 -17 3 -32 8
-34 10 -2 1 18 34 43 72 66 97 150 273 181 377 21 68 31 87 45 87 16 0 17 -6
12 -42z m-547 16 c13 -4 22 -12 20 -18 -9 -23 -65 -281 -72 -328 -7 -51 -11
-55 -38 -35 -15 11 -14 26 5 192 24 211 23 209 44 201 9 -3 27 -9 41 -12z
m483 8 c0 -5 -13 -47 -29 -94 -37 -109 -100 -238 -166 -336 -47 -71 -54 -77
-86 -77 -24 0 -33 4 -31 14 3 13 211 397 254 469 18 29 58 46 58 24z m-82 -11
c-1 -4 -61 -115 -133 -245 -94 -171 -135 -236 -148 -236 -33 0 -28 27 23 151
108 259 146 325 188 332 50 8 74 7 70 -2z m-182 -97 c-43 -84 -82 -174 -127
-291 -19 -48 -40 -66 -53 -45 -3 5 10 55 29 113 19 57 48 150 65 206 l31 102
47 3 c26 2 48 2 50 2 2 -1 -17 -42 -42 -90z m3542 64 c-3 -32 -7 -34 -143 -91
-157 -66 -231 -95 -355 -137 -92 -32 -280 -89 -280 -85 0 2 24 20 53 42 35 26
90 51 167 77 158 53 324 119 444 176 56 27 105 49 109 49 5 1 7 -14 5 -31z
m-3631 5 c-4 -10 -17 -56 -30 -103 -39 -137 -76 -254 -86 -269 -13 -20 -41 -6
-41 21 0 52 60 333 76 360 3 4 23 8 46 8 34 0 39 -3 35 -17z m-343 -135 c4
-57 11 -123 16 -148 4 -25 7 -47 5 -49 -2 -2 -20 0 -39 3 -30 6 -36 12 -50 53
-9 27 -16 80 -16 124 0 76 0 77 33 98 17 11 35 21 38 21 3 0 9 -46 13 -102z
m3959 41 c-6 -23 -16 -27 -233 -116 -261 -106 -524 -192 -652 -212 l-51 -9 24
20 c43 33 72 45 192 78 183 49 579 192 675 245 38 20 51 19 45 -6z m-534 -14
c-39 -40 -150 -58 -364 -59 -180 -1 -280 8 -270 24 9 15 82 22 273 26 103 2
221 10 262 17 41 8 86 15 100 16 l25 1 -26 -25z m-3539 -42 c0 -55 7 -99 24
-150 6 -19 4 -23 -13 -23 -16 0 -22 12 -34 68 -31 136 -30 132 -10 147 29 23
33 18 33 -42z m-57 -76 c21 -90 18 -115 -8 -81 -47 60 -77 150 -54 165 31 20
43 4 62 -84z m-93 40 c0 -28 42 -118 62 -135 10 -8 19 -38 23 -75 27 -248 111
-415 240 -477 25 -12 77 -27 117 -35 60 -10 93 -25 188 -82 192 -116 441 -239
611 -303 52 -19 65 -31 168 -154 61 -74 111 -137 111 -140 0 -24 -442 -282
-454 -265 -31 44 -284 364 -355 449 -129 155 -298 322 -406 398 -49 34 -146
92 -216 128 -143 74 -223 139 -293 238 -51 71 -107 180 -140 272 l-24 65 27
13 c14 7 37 17 51 21 14 4 57 23 95 43 77 38 176 72 188 65 4 -2 7 -14 7 -26z
m4194 10 c-6 -17 -25 -27 -169 -87 -362 -151 -669 -247 -825 -256 l-75 -5 40
26 c22 14 49 27 60 30 11 2 79 15 150 29 164 32 415 116 700 234 66 28 121 49
123 48 1 -2 0 -10 -4 -19z m-1064 -12 c129 -18 202 -18 350 -1 63 8 116 13
117 12 2 -2 -17 -17 -41 -34 l-44 -31 -213 -1 c-181 -1 -229 2 -309 20 -52 11
-102 23 -110 27 -21 9 78 33 115 28 17 -3 77 -11 135 -20z m-255 -39 c153 -27
399 -99 440 -130 13 -10 8 -16 -39 -45 l-55 -33 -130 45 c-148 52 -338 95
-459 104 -45 3 -80 8 -77 11 5 5 213 61 230 62 6 0 46 -6 90 -14z m1285 -16
c0 -6 -34 -46 -76 -89 -61 -64 -84 -82 -117 -89 -23 -5 -105 -26 -182 -46
-345 -91 -665 -146 -751 -130 l-37 7 34 18 c22 12 56 18 95 19 80 0 245 31
369 68 176 53 531 187 620 234 37 19 45 21 45 8z m-725 -55 c-59 -48 -72 -49
-165 -10 l-85 35 140 0 140 0 -30 -25z m-765 -20 c69 -8 163 -24 210 -35 101
-24 300 -91 300 -100 0 -4 -23 -19 -50 -34 -49 -27 -51 -27 -98 -12 -104 34
-446 104 -667 137 -79 12 -123 29 -74 29 13 0 47 7 74 14 67 19 154 19 305 1z
m-2506 -77 c10 -63 58 -195 94 -257 39 -69 105 -148 159 -191 23 -19 40 -36
38 -38 -11 -11 -105 23 -153 54 -90 59 -147 170 -177 343 -21 118 -20 131 9
131 20 0 24 -6 30 -42z m129 36 l37 -7 0 -83 c0 -136 52 -258 151 -354 29 -28
35 -40 27 -48 -18 -18 -26 -15 -79 29 -103 86 -180 216 -225 379 -13 47 -24
86 -24 87 0 5 75 3 113 -3z m2159 -44 c227 -39 378 -70 526 -108 l73 -19 -53
-28 -53 -27 -460 76 c-253 42 -478 79 -500 83 -38 6 -36 7 65 34 58 15 119 28
137 28 18 1 137 -17 265 -39z m-2038 16 c32 -13 33 -16 39 -82 8 -82 41 -154
102 -222 l44 -49 -34 -39 -35 -39 -51 55 c-72 78 -107 157 -121 266 -16 125
-9 137 56 110z m125 -62 c42 -27 165 -64 219 -64 l32 0 -87 -101 -87 -102 -45
49 c-24 27 -55 73 -68 102 -23 53 -32 142 -13 142 6 0 28 -12 49 -26z m1542
-19 c286 -45 801 -134 807 -139 2 -3 -24 -19 -58 -36 l-63 -32 -146 27 c-80
15 -180 33 -221 41 -41 7 -217 36 -390 64 -405 65 -382 59 -278 80 48 10 93
21 100 23 7 3 16 6 19 6 3 1 107 -15 230 -34z m1869 12 c0 -2 -29 -27 -64 -55
-63 -50 -66 -51 -213 -81 -322 -66 -579 -97 -713 -87 -46 4 -88 10 -93 15 -4
4 10 16 32 25 31 14 71 19 197 21 138 2 181 7 329 39 94 19 247 56 340 80 179
47 185 48 185 43z m-2737 -37 c93 -21 188 -44 527 -126 337 -82 600 -133 777
-150 52 -5 77 -12 89 -25 16 -18 16 -19 -7 -19 -93 0 -573 74 -789 122 -307
68 -710 186 -710 209 0 13 8 12 113 -11z m907 -96 c569 -95 590 -98 590 -105
0 -4 -28 -17 -62 -30 -59 -22 -66 -22 -178 -11 -183 18 -403 63 -815 164
l-210 52 60 11 c68 12 33 16 615 -81z m-937 41 c436 -142 846 -229 1353 -287
255 -29 533 -31 747 -4 82 10 151 15 155 11 4 -4 -5 -17 -20 -30 -24 -21 -41
-24 -165 -30 -166 -9 -708 0 -883 15 -157 13 -446 54 -570 81 -270 57 -574
154 -785 250 l-50 23 30 7 c17 4 35 7 40 8 6 0 72 -19 148 -44z m-151 -29
c254 -109 551 -202 783 -245 33 -6 96 -17 140 -25 265 -50 543 -69 987 -70
l396 -1 -43 -27 c-37 -23 -60 -28 -161 -37 -548 -46 -1098 4 -1599 146 -207
58 -390 125 -595 215 -74 33 -137 62 -139 64 -2 2 2 10 9 19 24 29 88 18 222
-39z m-184 -30 c277 -138 664 -265 1022 -335 345 -67 445 -76 889 -76 385 0
401 -1 365 -17 -81 -34 -560 -51 -809 -28 -483 46 -930 167 -1425 387 -69 30
-129 59 -134 64 -8 7 9 39 20 39 3 0 35 -15 72 -34z m2902 0 c0 -2 -28 -22
-63 -44 -53 -35 -76 -43 -157 -56 -310 -48 -640 -59 -722 -23 -44 19 -47 30
-14 45 18 8 34 7 67 -5 96 -35 412 -10 759 61 137 28 130 27 130 22z m-2944
-60 c67 -33 102 -48 284 -123 236 -97 580 -197 850 -248 281 -53 678 -77 934
-56 77 6 142 9 144 6 3 -3 -10 -11 -29 -19 -89 -37 -586 -53 -844 -27 -448 45
-877 173 -1319 393 -135 67 -138 70 -120 89 9 10 20 19 24 19 4 0 39 -15 76
-34z m4 -95 c186 -95 300 -143 545 -230 161 -57 417 -117 640 -151 165 -26
628 -38 785 -22 52 6 97 9 98 7 2 -2 -9 -10 -25 -19 -81 -41 -497 -68 -748
-47 -437 36 -883 179 -1342 428 -117 64 -122 68 -106 85 9 10 19 17 22 16 3
-2 62 -32 131 -67z m2029 -8 c69 -15 380 -6 540 16 85 11 157 19 159 17 2 -3
-18 -16 -45 -29 -86 -43 -350 -72 -591 -64 -169 5 -213 12 -261 43 l-26 18 58
27 59 27 35 -24 c19 -13 51 -27 72 -31z m-2100 -42 c401 -223 807 -365 1206
-420 259 -37 461 -38 755 -5 49 6 53 5 35 -8 -11 -8 -57 -31 -101 -51 l-81
-38 -139 11 c-750 58 -1323 220 -1720 486 -83 56 -91 64 -77 77 10 11 9 11
122 -52z m-103 -19 c21 -16 83 -54 137 -86 378 -222 846 -355 1472 -416 116
-11 214 -22 220 -24 5 -1 -32 -13 -83 -26 -88 -21 -100 -22 -205 -11 -475 51
-924 175 -1292 358 -108 54 -325 186 -325 198 0 12 20 35 30 35 4 0 25 -13 46
-28z m6 -98 c87 -56 278 -155 422 -219 65 -29 252 -94 374 -129 181 -53 321
-82 647 -135 47 -8 20 -9 -120 -6 -150 3 -203 9 -320 34 -205 43 -438 124
-650 227 -186 90 -475 256 -475 273 0 7 10 21 16 21 1 0 49 -30 106 -66z"/>
<path d="M7452 8173 c2 -5 47 -95 101 -202 l98 -193 -68 37 c-37 21 -75 44
-84 51 -18 16 -39 18 -39 5 0 -11 55 -47 162 -105 99 -54 206 -129 214 -151 8
-19 24 -20 24 -1 0 18 -76 88 -129 117 -39 22 -49 39 -148 237 -62 123 -113
212 -121 212 -7 0 -12 -3 -10 -7z"/>
<path d="M5321 8039 c-75 -114 -185 -244 -326 -386 -67 -68 -147 -158 -178
-200 -98 -137 -157 -278 -157 -376 l0 -39 -47 7 c-97 14 -190 80 -268 190 -29
40 -76 85 -136 130 -92 69 -150 139 -165 198 -4 17 -13 27 -25 27 -16 0 -17
-4 -7 -32 15 -43 69 -127 99 -154 13 -12 56 -46 96 -76 40 -30 92 -81 116
-114 87 -117 186 -186 288 -200 46 -6 47 -7 53 -48 9 -56 43 -140 84 -204 18
-30 32 -54 30 -55 -101 -51 -163 -127 -252 -312 -51 -106 -107 -249 -122 -311
-1 -7 -52 -13 -136 -17 -181 -8 -360 -33 -500 -68 -127 -32 -252 -74 -283 -95
-28 -20 -31 -18 -43 24 -38 126 -205 201 -449 202 l-113 0 0 27 c0 40 -43 104
-94 141 -44 32 -185 102 -233 117 -42 12 -25 -21 20 -40 340 -141 361 -249 96
-482 -54 -48 -99 -91 -99 -95 0 -24 40 1 121 74 92 82 179 187 179 215 0 13
20 15 148 11 125 -4 158 -9 219 -31 182 -65 220 -164 159 -412 -36 -147 -44
-225 -24 -225 11 0 17 16 22 63 4 34 18 103 31 153 13 50 27 119 31 153 8 72
10 73 153 123 186 65 411 104 661 115 l135 6 34 -89 c71 -186 103 -274 160
-439 32 -93 69 -195 81 -225 32 -80 60 -215 60 -293 0 -38 -9 -105 -21 -149
-37 -148 -110 -264 -268 -430 -54 -58 -81 -92 -74 -99 9 -9 115 92 190 181
127 150 203 335 203 493 0 91 -27 217 -74 343 -24 65 -67 187 -96 269 -29 83
-63 177 -76 210 -12 33 -38 101 -58 151 -40 103 -39 110 14 253 77 210 199
404 280 446 14 7 66 16 115 19 305 24 599 75 810 143 92 30 92 30 77 45 -8 8
-22 7 -54 -5 -135 -52 -426 -110 -688 -138 l-195 -20 -28 33 c-15 18 -41 60
-57 93 -71 149 -68 288 13 453 53 110 121 198 281 362 149 153 228 247 310
370 59 89 64 100 43 100 -7 0 -36 -37 -66 -81z"/>
<path d="M5518 7530 c-75 -13 -177 -49 -248 -88 -67 -37 -166 -130 -314 -295
-43 -49 -103 -105 -132 -124 -53 -35 -67 -53 -41 -53 30 0 109 63 192 156 183
202 247 260 337 303 90 44 178 68 290 79 43 4 73 12 76 20 4 14 -81 15 -160 2z"/>
<path d="M8598 7320 c-131 -143 -183 -258 -158 -350 6 -23 10 -44 8 -46 -2 -2
-46 11 -98 28 -83 27 -109 31 -205 31 -84 0 -129 -6 -190 -23 -87 -25 -145
-49 -145 -62 0 -12 4 -11 103 23 165 57 355 50 501 -19 50 -24 96 -63 256
-223 209 -208 293 -309 342 -415 71 -151 37 -302 -100 -446 -26 -27 -33 -41
-25 -49 14 -14 103 95 143 176 44 88 53 152 35 237 -27 133 -103 237 -366 503
-108 110 -206 218 -218 240 -51 96 -15 214 106 347 104 114 105 115 95 122 -6
3 -43 -30 -84 -74z"/>
<path d="M2990 7328 c-78 -114 -58 -103 -189 -100 -105 4 -125 1 -196 -22
-133 -44 -235 -124 -347 -271 -94 -123 -175 -171 -478 -283 -150 -56 -201 -84
-274 -152 -82 -77 -114 -128 -182 -287 -50 -117 -94 -190 -134 -220 -8 -6 -24
-18 -34 -26 -10 -8 -16 -19 -12 -25 11 -18 81 34 119 87 30 41 48 79 120 246
52 122 151 232 258 286 32 16 120 52 196 80 258 96 362 159 436 264 88 126
191 213 309 262 50 21 85 27 170 31 142 6 149 3 106 -50 -18 -23 -59 -70 -90
-104 -56 -59 -70 -84 -47 -84 40 0 345 398 322 421 -7 7 -23 -9 -53 -53z"/>
<path d="M3746 7303 c-3 -3 -6 -23 -6 -43 0 -86 -69 -216 -145 -274 -37 -29
-45 -46 -20 -46 22 0 99 74 134 128 32 50 61 145 61 199 0 31 -11 49 -24 36z"/>
<path d="M3183 7263 c-21 -59 -46 -118 -81 -188 -45 -92 -92 -222 -92 -257 0
-53 -11 -68 -47 -68 -96 0 -261 -39 -346 -82 -22 -11 -45 -17 -53 -14 -27 10
-46 75 -39 127 7 53 60 171 100 223 27 36 32 56 13 56 -14 0 -72 -86 -106
-155 -47 -96 -51 -198 -10 -251 l21 -26 -54 -53 c-432 -423 -515 -487 -693
-537 -38 -10 -81 -25 -95 -32 l-26 -14 -26 77 c-14 42 -36 103 -47 135 -29 78
-28 140 2 199 24 49 16 77 -12 41 -54 -71 -56 -159 -7 -284 19 -49 40 -110 47
-135 11 -42 11 -48 -5 -56 -63 -36 -151 -117 -209 -195 -91 -121 -124 -148
-284 -229 -111 -56 -150 -82 -199 -130 -33 -34 -82 -71 -108 -84 -77 -37 -227
-189 -227 -230 0 -25 27 -7 59 40 40 59 120 133 173 160 46 23 48 23 46 2 -3
-37 2 -55 15 -51 6 3 13 22 14 43 5 82 64 134 273 241 129 66 171 99 246 199
70 93 91 116 144 157 60 47 149 91 240 119 103 31 144 50 220 103 35 25 65 44
66 43 0 -1 -3 -45 -8 -97 -5 -52 -6 -140 -2 -196 l6 -100 -42 -13 c-41 -12
-107 -51 -345 -203 -38 -24 -133 -82 -210 -129 -181 -109 -277 -201 -332 -319
l-38 -80 -51 0 c-29 0 -81 -9 -116 -20 -65 -20 -65 -20 -106 0 -58 28 -132 38
-132 17 0 -10 14 -17 43 -21 23 -4 55 -13 71 -20 l30 -12 -49 -28 c-67 -40
-209 -176 -196 -189 7 -7 32 10 78 55 124 119 259 187 371 188 l52 0 0 -57 c0
-31 7 -79 16 -107 16 -50 16 -53 -10 -126 -15 -41 -56 -122 -92 -180 -82 -132
-165 -304 -194 -400 -17 -58 -21 -92 -18 -164 4 -129 40 -199 163 -324 l92
-93 -18 -52 c-11 -30 -18 -81 -19 -122 0 -93 28 -153 104 -222 86 -79 319
-188 304 -142 -2 7 -31 23 -64 35 -130 48 -247 132 -284 204 -37 72 -43 121
-26 190 26 100 22 100 114 21 76 -66 102 -82 102 -63 0 11 -79 86 -186 175
-187 156 -245 246 -252 389 -4 75 -1 100 23 175 30 96 107 257 164 343 57 84
98 162 112 211 19 66 49 101 154 176 85 61 114 93 85 93 -6 0 -56 -34 -111
-75 -55 -41 -102 -75 -104 -75 -1 0 -8 20 -15 45 -22 77 -9 170 35 254 61 116
135 184 335 307 96 59 245 151 330 203 85 53 168 102 183 109 70 31 165 0 220
-71 20 -27 26 -47 29 -104 l3 -71 -34 14 c-18 8 -42 14 -53 14 -33 0 -15 -22
36 -42 65 -25 112 -59 257 -184 120 -102 190 -150 203 -137 13 13 5 23 -35 44
-23 11 -78 53 -122 93 -45 40 -111 96 -147 125 -73 58 -78 67 -79 132 -2 88
28 157 134 317 35 53 45 76 37 84 -8 8 -30 -18 -80 -94 -38 -58 -77 -125 -87
-149 l-18 -45 -48 48 c-33 33 -62 52 -93 60 l-45 12 -7 74 c-7 80 1 263 15
322 8 35 67 97 337 352 105 99 190 150 294 177 61 16 233 40 243 34 4 -2 7
-15 7 -27 0 -28 63 -156 88 -179 17 -15 21 -15 57 3 25 12 108 29 215 44 96
14 204 35 240 47 57 18 81 20 200 16 74 -3 182 -11 240 -17 58 -7 164 -10 235
-8 112 4 137 8 178 28 26 13 47 27 47 31 0 18 -19 17 -59 -3 -61 -30 -212 -35
-456 -13 -225 20 -342 16 -425 -14 -30 -10 -117 -27 -193 -35 -76 -9 -166 -25
-199 -37 -33 -11 -62 -19 -63 -17 -1 2 -17 27 -36 57 -28 47 -33 65 -37 137
-6 108 3 138 92 335 89 198 93 209 71 209 -8 0 -18 -8 -22 -17z"/>
<path d="M9552 7008 c-28 -62 -64 -144 -80 -183 -51 -116 -104 -204 -164 -269
l-56 -61 -35 40 c-40 46 -121 107 -131 98 -3 -4 27 -37 68 -74 127 -117 172
-210 218 -444 35 -181 48 -418 28 -517 -23 -117 -69 -193 -174 -282 l-53 -46
-58 35 c-70 42 -172 76 -330 110 -164 36 -155 32 -118 63 34 29 69 90 58 100
-4 4 -12 -1 -19 -12 -50 -84 -108 -116 -226 -126 -101 -8 -217 2 -358 31 -99
19 -127 19 -106 0 11 -11 216 -47 353 -61 110 -12 187 -35 245 -75 23 -15 38
-20 42 -13 4 5 2 13 -3 17 -48 32 -82 51 -105 56 -39 10 -35 22 10 29 68 12
421 -73 523 -124 19 -10 49 -33 67 -51 39 -40 43 -95 12 -146 -17 -28 -25 -33
-59 -33 -69 0 -193 -21 -271 -46 -41 -13 -85 -24 -97 -24 -13 0 -23 -4 -23 -8
0 -4 -21 -18 -47 -31 -71 -34 -138 -77 -233 -150 l-85 -66 -78 2 c-42 1 -119
10 -170 19 -50 9 -139 16 -197 17 -96 0 -111 -2 -170 -30 -68 -31 -106 -64
-96 -82 4 -6 25 4 52 24 25 19 64 40 87 46 60 17 199 13 371 -10 82 -11 153
-18 158 -15 21 13 3 -14 -56 -83 -60 -69 -114 -144 -180 -250 -53 -86 -178
-119 -541 -143 -325 -21 -489 -46 -596 -91 -44 -18 -83 -28 -96 -24 -37 9
-127 106 -159 170 -28 58 -29 64 -29 210 1 130 5 171 33 301 31 147 41 254 23
254 -5 0 -12 -21 -15 -47 -4 -27 -23 -133 -43 -238 -31 -167 -35 -204 -31
-305 6 -151 36 -222 134 -316 36 -35 61 -64 54 -64 -15 0 -295 -140 -410 -205
-195 -110 -327 -190 -362 -221 -72 -64 -138 -58 -433 41 -104 35 -219 69 -253
75 -68 12 -152 6 -213 -15 -34 -12 -33 -10 36 60 68 69 74 73 129 79 97 13
196 53 302 123 l51 34 42 -21 c56 -30 121 -38 121 -16 0 11 -9 16 -27 16 -16
0 -47 9 -70 20 -48 21 -59 46 -50 115 4 24 3 47 -2 50 -13 7 -31 -51 -31 -101
0 -42 -1 -43 -75 -89 -188 -117 -375 -134 -569 -50 -92 40 -86 39 -86 21 0
-23 111 -67 260 -103 l35 -9 -55 -55 c-78 -78 -113 -91 -250 -100 -131 -7
-190 -27 -313 -106 -79 -50 -242 -172 -323 -240 l-51 -43 -26 20 c-49 39 -71
89 -77 175 -6 93 -24 103 -28 17 -4 -78 26 -160 74 -202 l36 -31 -41 -44
c-111 -120 -196 -307 -231 -510 -15 -83 -67 -252 -86 -280 -17 -23 -18 -55 -3
-55 25 0 105 233 124 360 8 58 50 190 83 260 70 150 176 265 392 426 256 190
310 216 459 220 97 2 103 1 75 -12 -53 -26 -128 -89 -176 -148 -265 -330 -209
-860 120 -1129 120 -98 322 -184 322 -137 0 5 -15 11 -32 15 -61 13 -213 94
-276 147 -205 174 -308 465 -262 745 48 301 260 517 549 562 100 16 158 4 411
-80 193 -65 223 -72 297 -73 78 -1 83 0 120 31 89 76 512 313 775 435 225 104
283 117 658 143 289 20 446 44 530 79 13 5 15 -10 12 -112 -4 -106 -1 -125 23
-197 14 -43 53 -131 86 -194 37 -72 63 -139 70 -176 30 -164 87 -228 258 -286
30 -11 65 -19 78 -19 46 0 17 23 -51 42 -164 45 -235 117 -255 261 -7 47 -27
99 -80 204 -83 166 -101 227 -101 343 1 102 10 150 39 187 12 15 49 69 81 119
147 226 380 428 575 500 28 10 52 21 55 24 3 3 39 16 80 28 208 61 425 50 586
-28 67 -33 154 -104 154 -126 0 -8 5 -14 11 -14 19 0 61 -109 67 -177 5 -43
12 -68 21 -71 12 -4 13 9 8 69 -3 41 -12 90 -20 109 l-14 35 76 80 c42 44 98
117 126 163 27 45 52 82 55 82 3 0 12 -15 21 -32 16 -34 65 -76 75 -65 4 4 -9
24 -29 46 -46 51 -61 107 -49 178 5 33 5 56 0 59 -16 10 -20 -3 -26 -78 -4
-63 -11 -82 -49 -147 -46 -77 -123 -179 -166 -219 -33 -31 -57 -23 -119 39
-69 69 -188 126 -308 146 -52 9 -97 18 -99 19 -2 2 5 23 14 49 15 39 16 52 6
87 -13 41 -12 41 21 66 147 112 218 267 218 474 0 92 -40 372 -71 493 -11 44
-38 114 -61 157 l-40 78 60 65 c71 75 113 148 187 318 29 68 67 151 84 184 27
55 30 73 11 73 -4 0 -30 -51 -58 -112z"/>
<path d="M9768 7115 c-2 -3 11 -35 29 -72 58 -118 66 -246 22 -381 -12 -35
-18 -66 -14 -70 18 -19 54 97 62 200 7 97 -9 184 -50 266 -30 59 -38 68 -49
57z"/>
<path d="M1821 7015 c-66 -75 -85 -124 -70 -179 8 -28 44 -66 64 -66 11 0 4
28 -11 41 -46 38 -31 108 40 186 32 36 37 53 15 53 -4 0 -21 -16 -38 -35z"/>
<path d="M5002 6490 c2 -6 40 -27 85 -45 206 -81 331 -210 364 -374 11 -59 8
-196 -7 -263 -8 -35 20 -40 30 -5 14 46 19 223 7 275 -35 163 -158 297 -348
381 -86 38 -138 50 -131 31z"/>
<path d="M1851 5321 l-91 -98 -56 28 c-31 16 -71 29 -89 29 -78 0 -324 -89
-325 -117 0 -18 20 -16 60 6 77 41 185 73 250 75 117 2 163 -46 195 -204 76
-383 173 -592 358 -770 64 -62 69 -70 47 -70 -78 0 -248 68 -342 138 -80 58
-89 62 -236 88 -196 34 -312 76 -380 137 -16 15 -25 18 -33 10 -16 -16 -5 -28
63 -68 80 -48 187 -82 328 -105 159 -27 150 -24 237 -84 157 -107 218 -128
448 -156 94 -11 175 -22 182 -24 6 -3 18 -29 27 -59 41 -142 209 -237 491
-276 44 -6 95 -14 113 -17 24 -4 32 -1 32 10 0 16 -7 18 -164 41 -189 29 -331
86 -391 157 -39 46 -67 117 -62 153 3 17 14 84 25 151 19 120 37 170 74 210
28 31 3 43 -28 13 -34 -32 -62 -113 -75 -221 -17 -133 -19 -138 -66 -128 -21
5 -66 11 -100 15 -61 7 -64 8 -153 92 -147 139 -217 252 -288 468 -22 66 -52
178 -66 250 -15 71 -34 144 -42 163 -18 43 -15 48 85 147 45 44 81 85 81 92 0
32 -25 15 -109 -76z"/>
<path d="M7237 5224 c-12 -13 4 -24 34 -24 20 0 29 4 27 13 -5 13 -50 22 -61
11z"/>
<path d="M7387 5204 c-12 -12 4 -24 34 -24 16 0 29 5 29 10 0 6 -6 10 -14 10
-8 0 -21 2 -28 5 -8 3 -17 3 -21 -1z"/>
<path d="M7534 5178 c-8 -12 -4 -15 29 -23 20 -5 27 -4 27 8 0 17 -47 29 -56
15z"/>
<path d="M7680 5150 c0 -11 48 -25 56 -17 4 3 3 10 -1 16 -8 14 -55 14 -55 1z"/>
<path d="M7827 5134 c-12 -13 4 -24 34 -24 20 0 29 4 27 13 -5 13 -50 22 -61
11z"/>
<path d="M7974 5108 c-8 -13 -4 -16 30 -20 16 -1 31 2 33 8 5 14 -55 25 -63
12z"/>
<path d="M8122 5078 c5 -15 57 -18 61 -3 1 6 -13 11 -32 13 -24 3 -32 0 -29
-10z"/>
<path d="M8272 5058 c5 -15 58 -24 58 -10 0 11 -24 22 -47 22 -8 0 -13 -6 -11
-12z"/>
<path d="M11705 5024 c-28 -23 -58 -38 -99 -46 -53 -11 -64 -18 -121 -80 l-63
-69 -17 53 c-21 64 -65 138 -82 138 -20 0 -15 -23 19 -90 27 -52 32 -73 32
-129 0 -36 -6 -96 -13 -133 -13 -65 -13 -68 18 -158 46 -135 53 -230 29 -415
-2 -11 4 -21 13 -23 12 -2 19 15 32 75 9 43 17 94 17 114 0 51 -39 226 -62
282 -39 91 -2 215 97 325 40 44 56 55 116 72 65 20 149 76 149 100 0 21 -30
14 -65 -16z"/>
<path d="M8420 5036 c0 -16 48 -28 56 -14 8 12 5 14 -28 22 -21 5 -28 3 -28
-8z"/>
<path d="M5497 5010 c18 -31 28 -36 37 -22 8 13 -23 52 -40 52 -13 0 -12 -5 3
-30z"/>
<path d="M8560 5011 c0 -11 59 -26 67 -18 3 3 2 10 -2 16 -8 13 -65 15 -65 2z"/>
<path d="M8867 4973 c-14 -13 -6 -21 23 -25 19 -3 30 0 30 8 0 18 -40 31 -53
17z"/>
<path d="M9010 4941 c0 -5 10 -11 23 -15 33 -9 37 -8 37 9 0 10 -10 15 -30 15
-16 0 -30 -4 -30 -9z"/>
<path d="M9160 4916 c0 -11 10 -16 31 -16 38 0 35 24 -4 28 -19 2 -27 -1 -27
-12z"/>
<path d="M5576 4911 c-3 -4 5 -18 18 -30 29 -27 47 -10 20 20 -19 21 -30 24
-38 10z"/>
<path d="M9310 4895 c0 -10 10 -15 30 -15 35 0 40 15 8 24 -34 9 -38 8 -38 -9z"/>
<path d="M9455 4879 c-9 -13 -7 -15 27 -23 36 -8 46 11 13 24 -32 12 -32 12
-40 -1z"/>
<path d="M9750 4826 c0 -11 10 -16 31 -16 38 0 35 24 -4 28 -19 2 -27 -1 -27
-12z"/>
<path d="M9900 4806 c0 -9 6 -16 14 -16 8 0 21 -3 30 -6 11 -4 16 -1 16 10 0
9 -6 16 -14 16 -8 0 -21 3 -30 6 -11 4 -16 1 -16 -10z"/>
<path d="M10052 4778 c7 -20 58 -23 58 -4 0 11 -10 16 -31 16 -20 0 -29 -4
-27 -12z"/>
<path d="M10197 4764 c-12 -12 4 -24 34 -24 34 0 39 15 7 24 -29 7 -33 7 -41
0z"/>
<path d="M9093 4579 c2 -13 15 -62 28 -109 22 -79 24 -102 22 -318 -1 -207 -3
-240 -23 -305 -12 -39 -28 -82 -35 -94 -12 -17 -12 -23 -1 -32 10 -9 19 1 39
46 31 70 47 154 47 243 0 72 6 83 66 113 31 16 128 31 274 42 124 10 259 39
319 70 118 59 198 167 224 303 5 24 3 32 -8 32 -12 0 -35 -55 -35 -86 0 -23
-53 -110 -88 -147 -20 -21 -56 -49 -80 -63 -60 -35 -208 -71 -327 -79 -147 -9
-242 -24 -292 -46 -25 -10 -45 -19 -46 -19 -1 0 -1 31 1 70 7 131 -43 387 -77
398 -10 3 -12 -2 -8 -19z"/>
<path d="M8436 4113 c-12 -13 -5 -21 68 -82 87 -72 116 -113 116 -168 0 -22
11 -61 25 -89 47 -95 145 -150 328 -185 168 -32 376 -131 479 -227 78 -73 96
-158 52 -244 -9 -16 -13 -37 -9 -46 9 -23 41 28 55 90 19 77 0 136 -66 208
-30 32 -54 63 -54 69 0 14 40 98 69 145 15 23 18 37 11 41 -14 9 -30 -13 -76
-103 -21 -40 -40 -71 -43 -70 -199 102 -287 140 -356 153 -180 35 -266 68
-322 124 -39 38 -63 90 -63 134 0 20 -5 48 -10 62 -17 45 -189 203 -204 188z"/>
<path d="M6820 3790 c0 -17 61 -116 115 -188 46 -61 109 -112 138 -112 29 0
19 18 -22 41 -48 26 -91 77 -156 182 -47 75 -75 104 -75 77z"/>
<path d="M7447 3783 c-3 -5 12 -44 34 -88 54 -111 73 -191 66 -290 -8 -143
-86 -270 -204 -332 -93 -50 -162 -63 -345 -66 -150 -2 -167 0 -211 20 -72 34
-122 77 -169 149 -42 63 -49 70 -61 58 -18 -18 91 -156 159 -201 l54 -36 -67
-31 c-90 -41 -137 -70 -201 -124 -29 -24 -54 -43 -56 -41 -64 90 -87 117 -130
149 -135 100 -223 122 -511 124 -283 2 -351 19 -483 118 -53 39 -70 43 -59 14
9 -23 122 -95 190 -120 96 -36 186 -46 387 -44 167 2 193 0 265 -21 100 -29
168 -67 231 -129 227 -223 177 -643 -113 -953 -31 -33 -40 -49 -32 -55 15 -9
101 80 158 165 146 215 197 471 130 661 l-19 55 49 45 c60 54 138 103 223 138
58 24 77 26 234 29 243 4 345 27 440 99 17 13 35 24 41 24 17 0 198 -155 247
-213 131 -151 169 -237 171 -384 1 -57 4 -106 8 -109 11 -11 27 45 27 96 0 47
2 51 43 79 l44 30 36 -43 c67 -80 190 -130 355 -143 72 -5 82 -4 82 11 0 12
-10 16 -42 16 -119 0 -275 46 -341 101 -56 46 -77 95 -77 179 0 53 -3 70 -14
70 -18 0 -27 -63 -17 -117 9 -45 2 -57 -46 -82 -30 -15 -30 -15 -37 24 -11 54
-81 184 -138 254 -50 61 -171 174 -247 232 l-34 25 32 48 c76 110 98 246 62
386 -28 112 -98 249 -114 223z"/>
<path d="M2246 2968 c-3 -7 -12 -40 -22 -73 -19 -61 -34 -79 -166 -202 -44
-41 -62 -68 -88 -130 -18 -43 -38 -85 -46 -94 -18 -20 -18 -39 -1 -39 16 0 43
45 79 130 24 54 45 81 132 165 76 74 105 109 111 134 l7 33 37 -35 c20 -20 49
-41 64 -46 67 -26 79 0 14 28 -49 21 -83 58 -92 101 -7 33 -23 48 -29 28z"/>
<path d="M6083 2702 c-73 -38 -359 -257 -413 -316 -103 -113 -171 -176 -280
-260 -164 -126 -184 -148 -253 -271 -78 -141 -164 -232 -252 -264 -134 -50
-254 -52 -454 -7 -113 26 -129 27 -117 7 9 -14 62 -28 194 -51 137 -24 197
-25 294 -5 168 35 256 112 372 327 51 94 78 122 235 241 119 90 198 163 248
228 21 28 76 79 123 114 47 36 129 98 183 139 54 42 123 87 153 102 29 14 51
30 48 35 -8 14 -25 10 -81 -19z"/>
<path d="M3105 2359 c-180 -30 -780 -55 -1010 -41 -146 8 -181 4 -158 -19 19
-19 678 -15 913 5 260 23 373 39 378 54 4 14 -44 15 -123 1z"/>
<path d="M6089 1739 c-120 -52 -207 -61 -560 -57 -255 2 -319 0 -332 -11 -22
-18 -11 -34 16 -24 12 4 177 8 367 8 331 0 348 1 425 23 108 32 175 62 175 78
0 19 -15 16 -91 -17z"/>
</g>
</svg>
